<svg xmlns="http://www.w3.org/2000/svg" xmlns:xlink="http://www.w3.org/1999/xlink" width="512" zoomAndPan="magnify" viewBox="0 0 384 383.999986" height="512" preserveAspectRatio="xMidYMid meet" version="1.0"><path fill="#32d8d4" d="M 192.292969 198.464844 C 217.273438 198.464844 242.253906 200.210938 267.109375 203.707031 C 244.128906 194.34375 217.523438 189.726562 190.921875 189.726562 C 163.566406 189.726562 136.214844 194.59375 112.484375 204.207031 C 139.085938 200.335938 165.691406 198.464844 192.292969 198.464844 Z M 192.292969 198.464844 " fill-opacity="1" fill-rule="nonzero"/><path fill="#15376b" d="M 126.472656 190.851562 C 146.582031 184.859375 168.4375 181.738281 190.921875 181.738281 C 213.152344 181.738281 234.761719 184.859375 254.371094 190.851562 L 272.855469 117.703125 C 278.851562 93.859375 255.867188 70.894531 233.011719 80.003906 C 213.277344 87.871094 207.28125 101.226562 161.945312 104.222656 C 161.945312 104.222656 187.296875 95.734375 191.296875 90.242188 C 191.046875 90.242188 190.796875 90.242188 190.546875 90.242188 C 184.050781 90.242188 177.679688 89.242188 171.4375 87.371094 L 147.953125 80.128906 C 124.472656 72.890625 102.117188 93.984375 108.113281 117.828125 Z M 126.472656 190.851562 " fill-opacity="1" fill-rule="nonzero"/><path fill="#32d8d4" d="M 221.519531 237.285156 L 227.515625 207.703125 C 227.265625 207.703125 227.140625 207.578125 226.890625 207.578125 C 215.402344 206.828125 203.910156 206.453125 192.417969 206.453125 C 179.679688 206.453125 166.691406 206.953125 153.574219 207.828125 L 156.449219 220.808594 C 179.679688 221.929688 203.535156 233.789062 203.535156 233.789062 C 203.535156 233.789062 144.582031 226.800781 144.582031 231.917969 C 144.582031 234.789062 150.703125 238.410156 160.320312 241.777344 L 163.316406 256.507812 C 163.941406 256.507812 178.554688 257.007812 199.664062 269.117188 C 180.679688 266.617188 150.453125 263.375 150.453125 267.492188 C 150.453125 270.363281 157.195312 273.984375 167.4375 277.105469 L 169.1875 285.84375 C 175.558594 287.339844 185.550781 290.460938 197.539062 297.449219 C 184.925781 296.203125 160.070312 292.707031 160.070312 295.578125 C 160.070312 297.699219 165.066406 300.445312 172.683594 302.816406 L 177.179688 325.160156 L 190.546875 332.777344 L 203.910156 325.160156 L 207.28125 308.558594 C 215.527344 308.808594 221.019531 307.6875 221.019531 305.4375 C 221.019531 303.441406 216.398438 300.820312 209.28125 298.449219 L 212.027344 284.46875 C 223.144531 284.71875 230.511719 283.34375 230.511719 280.347656 C 230.511719 277.601562 224.269531 274.234375 214.777344 271.113281 L 218.773438 251.390625 C 229.515625 251.390625 236.507812 249.765625 236.507812 246.648438 C 236.257812 243.902344 230.636719 240.40625 221.519531 237.285156 Z M 221.519531 237.285156 " fill-opacity="1" fill-rule="evenodd"/></svg>